<svg viewBox="-10 -10 205 54" fill="none" xmlns="http://www.w3.org/2000/svg">
<g clip-path="url(#clip0_1397_3122)">
<path d="M81.4291 13.2249V12.5602C81.4291 9.09979 78.9931 6.75377 74.8318 6.75377V5.87402H72.3961V6.75377C68.2753 6.75377 65.7988 9.13889 65.7988 12.5602V13.2249C65.7988 16.6852 68.2348 19.0312 72.3961 19.0312V19.911H74.8318V19.0312C78.9527 19.0312 81.4291 16.6461 81.4291 13.2249ZM78.8715 12.5602V13.2249C78.8715 15.5513 77.4707 16.9003 74.8318 16.9003V8.8652C77.4302 8.8652 78.8715 10.2533 78.8715 12.5602ZM68.3565 13.2249V12.5602C68.3565 10.2141 69.7573 8.8652 72.3961 8.8652V16.9003C69.7977 16.9003 68.3565 15.5122 68.3565 13.2249ZM90.2355 19.735H92.5903V9.96H89.6266L86.7238 15.043L85.8103 16.8612V9.96H83.4558V19.735H86.4195L89.3222 14.652L90.2355 12.8339V19.735ZM94.2158 11.9541H97.3011V19.735H99.6559V11.9541H102.741V9.96H94.2158V11.9541ZM111.149 19.735H113.504V9.96H111.149V13.7527H106.724V9.96H104.369V19.735H106.724V15.7468H111.149V19.735ZM120.305 19.911C123.147 19.911 124.568 18.5425 124.974 16.7048H122.538C122.335 17.3499 121.747 17.9169 120.305 17.9169C118.864 17.9169 118.012 17.2326 117.89 15.61H125.076V14.8475C125.076 11.6217 123.249 9.78406 120.305 9.78406C117.403 9.78406 115.535 11.5827 115.535 14.5347V15.1603C115.535 18.1124 117.403 19.911 120.305 19.911ZM120.305 11.7782C121.686 11.7782 122.498 12.3647 122.68 13.8114H117.93C118.133 12.4038 118.945 11.7782 120.305 11.7782ZM131.267 19.911C133.825 19.911 135.226 18.562 135.632 16.5093H133.115C132.912 17.2326 132.323 17.7996 131.166 17.7996C130.009 17.7996 128.974 16.998 128.974 15.1603V14.5347C128.974 12.6579 129.968 11.8955 131.166 11.8955C132.201 11.8955 132.912 12.3842 133.115 13.088H135.632C135.226 11.133 133.825 9.78406 131.267 9.78406C128.385 9.78406 126.497 11.6022 126.497 14.5347V15.1603C126.497 18.1319 128.345 19.911 131.267 19.911ZM148.519 19.735H151.361L147.748 14.5738L150.955 9.96H148.235L145.799 13.655H144.784V9.96H142.429V19.735H144.784V15.6491H145.799L148.519 19.735ZM152.057 19.911H152.362C154.737 19.911 156.239 18.562 156.239 14.5738V11.9541H159.243V19.735H161.598V9.96H153.884V14.5738C153.884 17.1349 153.093 17.7996 152.362 17.7996H152.057V19.911ZM165.554 23.645H167.99L173.369 9.96H170.934L168.335 16.9589L165.575 9.96H163.017L167.097 19.735L165.554 23.645ZM179.044 19.911C182.048 19.911 183.915 18.1124 183.915 15.2581V14.6325C183.915 11.6804 182.149 9.97954 179.551 9.97954C178.272 9.97954 177.176 10.4488 176.425 11.348C176.648 9.94046 177.115 9.19754 177.968 8.72834C179.328 8.00499 181.073 8.47419 183.103 7.82903V5.87402C180.363 6.61694 178.78 6.04999 176.953 6.98838C174.882 8.06364 174.172 10.4683 174.172 13.3617V14.3783C174.172 18.1319 176.019 19.911 179.044 19.911ZM179.044 12.091C180.505 12.091 181.439 12.9903 181.439 14.6325V15.2581C181.439 16.9003 180.505 17.7996 179.044 17.7996C177.582 17.7996 176.648 16.9003 176.648 15.2581V14.5152C176.689 12.9511 177.623 12.091 179.044 12.091Z" fill="#1EA0DE"/>
<path d="M69.3003 30.0747C69.9365 30.0747 70.4593 29.7977 70.7731 29.3194L70.8689 30.0077H71.4789V27.1541C71.4789 26.2896 70.9126 25.7441 69.8231 25.7441C68.673 25.7441 68.124 26.273 68.0805 26.9862H68.9517C68.9954 26.6505 69.2393 26.4156 69.8231 26.4156C70.4159 26.4156 70.6946 26.684 70.6946 27.1541V27.4646H69.8231C68.4377 27.4646 67.9062 27.9765 67.9062 28.8327C67.9062 29.6047 68.394 30.0747 69.3003 30.0747ZM69.3874 29.4033C68.9692 29.4033 68.7253 29.1684 68.7253 28.8158C68.7253 28.3878 69.0216 28.1025 69.8231 28.1025H70.6946V28.2535C70.6946 28.8745 70.1455 29.4033 69.3874 29.4033ZM72.7383 30.0077H74.5683C75.7449 30.0077 76.224 29.546 76.224 28.7906C76.224 28.3795 75.9974 28.0186 75.5096 27.8255C75.8755 27.6242 76.0497 27.322 76.0497 26.9779C76.0497 26.273 75.5706 25.8113 74.394 25.8113H72.7383V30.0077ZM74.5683 28.1948C75.1958 28.1948 75.4049 28.3961 75.4049 28.7488C75.4049 29.118 75.1958 29.3194 74.5683 29.3194H73.5226V28.1948H74.5683ZM74.394 26.4996C75.0302 26.4996 75.2306 26.6926 75.2306 27.0198C75.2306 27.3472 75.0302 27.5402 74.394 27.5402H73.5226V26.4996H74.394ZM76.7013 26.4996H78.0956V30.0077H78.8799V26.4996H80.2742V25.8113H76.7013V26.4996ZM82.6762 30.0747C83.8875 30.0747 84.6805 29.3111 84.6805 28.069V27.7499C84.6805 26.4996 83.8962 25.7441 82.6762 25.7441C81.4651 25.7441 80.6721 26.5079 80.6721 27.7499V28.069C80.6721 29.3194 81.4562 30.0747 82.6762 30.0747ZM82.6762 29.3529C81.9531 29.3529 81.4912 28.9083 81.4912 28.069V27.7499C81.4912 26.9023 81.9442 26.4658 82.6762 26.4658C83.3995 26.4658 83.8614 26.9106 83.8614 27.7499V28.069C83.8614 28.9166 83.4081 29.3529 82.6762 29.3529ZM87.6417 29.0005H88.4258L89.1229 27.5737L89.5586 26.6588V30.0077H90.3429V25.8113H89.2276L88.0513 28.1948L86.8747 25.8113H85.7246V30.0077H86.5089V26.6674L86.9357 27.5737L87.6417 29.0005ZM92.7365 30.0747C93.3727 30.0747 93.8956 29.7977 94.2094 29.3194L94.3051 30.0077H94.9151V27.1541C94.9151 26.2896 94.3488 25.7441 93.2594 25.7441C92.1093 25.7441 91.5602 26.273 91.5168 26.9862H92.388C92.4317 26.6505 92.6756 26.4156 93.2594 26.4156C93.8521 26.4156 94.1308 26.684 94.1308 27.1541V27.4646H93.2594C91.874 27.4646 91.3425 27.9765 91.3425 28.8327C91.3425 29.6047 91.8303 30.0747 92.7365 30.0747ZM92.8237 29.4033C92.4055 29.4033 92.1616 29.1684 92.1616 28.8158C92.1616 28.3878 92.4578 28.1025 93.2594 28.1025H94.1308V28.2535C94.1308 28.8745 93.5818 29.4033 92.8237 29.4033ZM95.6104 26.4996H97.0044V30.0077H97.7887V26.4996H99.183V25.8113H95.6104V26.4996ZM102.976 30.0077H103.76V25.8113H102.749L101.276 28.2452L100.797 29.1097V25.8113H100.013V30.0077H101.024L102.496 27.5737L102.976 26.7092V30.0077ZM106.505 25.7441C105.416 25.7441 104.893 26.2478 104.806 27.0283H105.608C105.695 26.6674 105.921 26.4491 106.505 26.4491C107.089 26.4491 107.316 26.6674 107.316 26.9862C107.316 27.322 107.089 27.5233 106.505 27.5233H106.026V28.2117H106.505C107.194 28.2117 107.447 28.4382 107.447 28.7906C107.447 29.1263 107.194 29.3698 106.505 29.3698C105.817 29.3698 105.564 29.1263 105.477 28.7067H104.676C104.762 29.5545 105.303 30.0747 106.505 30.0747C107.708 30.0747 108.248 29.5545 108.248 28.8327C108.248 28.413 108.03 28.069 107.56 27.8674C107.934 27.6746 108.118 27.3472 108.118 26.9444C108.118 26.2478 107.595 25.7441 106.505 25.7441ZM110.386 30.0747C111.022 30.0747 111.545 29.7977 111.859 29.3194L111.955 30.0077H112.565V27.1541C112.565 26.2896 111.998 25.7441 110.909 25.7441C109.759 25.7441 109.21 26.273 109.166 26.9862H110.038C110.081 26.6505 110.325 26.4156 110.909 26.4156C111.502 26.4156 111.781 26.684 111.781 27.1541V27.4646H110.909C109.523 27.4646 108.992 27.9765 108.992 28.8327C108.992 29.6047 109.48 30.0747 110.386 30.0747ZM110.473 29.4033C110.055 29.4033 109.811 29.1684 109.811 28.8158C109.811 28.3878 110.107 28.1025 110.909 28.1025H111.781V28.2535C111.781 28.8745 111.232 29.4033 110.473 29.4033ZM113.824 30.0077H117.179V31.0988H117.963V29.3194H117.353V25.8113H116.569V29.3194H114.609V25.8113H113.824V30.0077ZM121.714 30.0077H122.498V25.8113H121.488L120.015 28.2452L119.536 29.1097V25.8113H118.752V30.0077H119.762L121.235 27.5737L121.714 26.7092V30.0077ZM123.545 27.1876C123.545 27.7585 123.763 28.1696 124.312 28.3878L123.371 30.0077H124.242L125.052 28.5388C125.166 28.5474 125.288 28.5474 125.418 28.5474H126.159V30.0077H126.943V25.8113H125.418C124.059 25.8113 123.545 26.3065 123.545 27.1876ZM124.364 27.1876C124.364 26.7345 124.608 26.4996 125.418 26.4996H126.159V27.8591H125.418C124.608 27.8591 124.364 27.6242 124.364 27.1876ZM133.39 30.0077H134.174V25.8113H133.163L131.691 28.2452L131.211 29.1097V25.8113H130.427V30.0077H131.438L132.911 27.5737L133.39 26.7092V30.0077ZM138.227 31.6863H139.063L141.408 25.8113H140.571L139.316 29.0593L137.992 25.8113H137.137L138.898 30.0077L138.227 31.6863ZM144.976 30.0077H145.76V25.8113H142.188V30.0077H142.972V26.4996H144.976V30.0077ZM149.173 30.0747C150.158 30.0747 150.898 29.3615 150.898 28.069V27.7499C150.898 26.4491 150.166 25.7441 149.181 25.7441C148.554 25.7441 148.057 25.9707 147.752 26.4156L147.674 25.8113H147.064V31.6863H147.848V29.5293C148.153 29.8902 148.606 30.0747 149.173 30.0747ZM148.964 29.3529C148.319 29.3529 147.848 28.8914 147.848 28.069V27.6912C147.866 26.894 148.336 26.4658 148.964 26.4658C149.652 26.4658 150.079 26.8854 150.079 27.7499V28.069C150.079 28.9501 149.661 29.3529 148.964 29.3529ZM153.029 30.0747C153.665 30.0747 154.188 29.7977 154.502 29.3194L154.598 30.0077H155.208V27.1541C155.208 26.2896 154.642 25.7441 153.552 25.7441C152.402 25.7441 151.853 26.273 151.809 26.9862H152.681C152.724 26.6505 152.968 26.4156 153.552 26.4156C154.145 26.4156 154.424 26.684 154.424 27.1541V27.4646H153.552C152.167 27.4646 151.635 27.9765 151.635 28.8327C151.635 29.6047 152.123 30.0747 153.029 30.0747ZM153.116 29.4033C152.698 29.4033 152.454 29.1684 152.454 28.8158C152.454 28.3878 152.751 28.1025 153.552 28.1025H154.424V28.2535C154.424 28.8745 153.874 29.4033 153.116 29.4033ZM156.467 30.0077H158.297C159.474 30.0077 159.953 29.546 159.953 28.7906C159.953 28.3795 159.726 28.0186 159.238 27.8255C159.604 27.6242 159.779 27.322 159.779 26.9779C159.779 26.273 159.299 25.8113 158.123 25.8113H156.467V30.0077ZM158.297 28.1948C158.925 28.1948 159.134 28.3961 159.134 28.7488C159.134 29.118 158.925 29.3194 158.297 29.3194H157.251V28.1948H158.297ZM158.123 26.4996C158.759 26.4996 158.96 26.6926 158.96 27.0198C158.96 27.3472 158.759 27.5402 158.123 27.5402H157.251V26.4996H158.123ZM160.472 30.0747H160.602C161.509 30.0747 162.084 29.5293 162.084 27.8759V26.4996H163.652V30.0077H164.437V25.8113H161.299V27.8759C161.299 29.0424 160.977 29.3529 160.602 29.3529H160.472V30.0747ZM167.442 30.0747C168.619 30.0747 169.185 29.5293 169.359 28.7067H168.558C168.383 29.1432 168.131 29.3867 167.442 29.3867C166.789 29.3867 166.327 28.967 166.301 28.1529H169.403V27.7499C169.403 26.5162 168.601 25.7441 167.442 25.7441C166.292 25.7441 165.482 26.5248 165.482 27.7499V28.069C165.482 29.3111 166.275 30.0747 167.442 30.0747ZM167.442 26.4323C168.096 26.4323 168.497 26.7597 168.566 27.4981H166.31C166.388 26.7849 166.824 26.4323 167.442 26.4323ZM173.412 30.0077H174.196V25.8113H173.412V27.5233H171.233V25.8113H170.449V30.0077H171.233V28.2117H173.412V30.0077ZM178.467 30.0077H179.251V25.8113H178.24L176.767 28.2452L176.288 29.1097V25.8113H175.504V30.0077H176.515L177.987 27.5737L178.467 26.7092V30.0077ZM182.258 30.0747C183.435 30.0747 184.001 29.5293 184.175 28.7067H183.374C183.199 29.1432 182.946 29.3867 182.258 29.3867C181.605 29.3867 181.143 28.967 181.116 28.1529H184.219V27.7499C184.219 26.5162 183.417 25.7441 182.258 25.7441C181.108 25.7441 180.297 26.5248 180.297 27.7499V28.069C180.297 29.3111 181.09 30.0747 182.258 30.0747ZM182.258 26.4323C182.912 26.4323 183.313 26.7597 183.382 27.4981H181.125C181.204 26.7849 181.639 26.4323 182.258 26.4323Z" fill="#003459"/>
<path fill-rule="evenodd" clip-rule="evenodd" d="M12.0136 32.4139V1.27246H10.6533L1.06348 3.92011L2.59377 9.46757L8.40891 8.14375V32.4139H12.0136Z" fill="#3CAAE1"/>
<path d="M15.6524 1.27246H12.0137V32.4139H15.6524V1.27246Z" fill="#66BCF7"/>
<path fill-rule="evenodd" clip-rule="evenodd" d="M39.6283 3.85704C43.8112 3.85704 47.7899 5.59063 50.4425 8.58501L52.6189 6.25256C46.2936 -0.3981 35.3774 -1.02849 28.2022 4.80264C21.0268 10.6338 20.3126 20.7831 26.6379 27.4337C32.963 34.0843 43.8792 34.7464 51.0547 28.8836C51.5306 28.5055 51.9728 28.0958 52.381 27.686L50.2045 25.385C45.1035 30.8064 36.2618 31.3737 30.4127 26.6458C24.5635 21.9178 23.9514 13.7227 29.0524 8.30134C31.739 5.49608 35.5817 3.85704 39.6283 3.85704Z" fill="#3CAAE1"/>
<path fill-rule="evenodd" clip-rule="evenodd" d="M50.442 8.58488C45.5109 3.03742 36.7032 2.24942 30.7181 6.81977C24.733 11.3901 23.8828 19.5537 28.8139 25.1012C33.7446 30.6486 42.5524 31.4367 48.5375 26.8663C49.1497 26.3934 49.6938 25.8892 50.204 25.3533L47.8916 22.8633C44.3209 27.0869 37.6896 27.8433 33.1325 24.5023C28.5756 21.1612 27.7596 15.0464 31.3642 10.8228C34.969 6.59914 41.5663 5.84266 46.1231 9.18374C46.8712 9.71958 47.5514 10.35 48.0956 11.0749L50.442 8.58488Z" fill="#66BCF7"/>
<path d="M57.515 15.0467C58.4539 15.0467 59.2152 14.3411 59.2152 13.4708C59.2152 12.6004 58.4539 11.8948 57.515 11.8948C56.5758 11.8948 55.8145 12.6004 55.8145 13.4708C55.8145 14.3411 56.5758 15.0467 57.515 15.0467Z" fill="#3CAAE1"/>
<path d="M57.5147 26.078C58.4539 26.078 59.2149 25.3724 59.2149 24.502C59.2149 23.6316 58.4539 22.926 57.5147 22.926C56.5755 22.926 55.8145 23.6316 55.8145 24.502C55.8145 25.3724 56.5755 26.078 57.5147 26.078Z" fill="#3CAAE1"/>
</g>
<defs>
<clipPath id="clip0_1397_3122">
<rect width="184" height="33" fill="white" transform="translate(0.891602 0.115234)"/>
</clipPath>
</defs>
</svg>
