<svg viewBox="-10 -10 200 50" fill="none" xmlns="http://www.w3.org/2000/svg">
<path d="M169.157 14.2046H172.425C175.156 14.2046 176.347 13.0136 176.347 10.8493C176.347 8.81584 175.025 7.49406 172.425 7.49406H170.9V4.03711H169.157V14.2046ZM177.436 14.2046H179.179V4.03711H177.436V14.2046ZM172.425 9.03371C173.805 9.03371 174.517 9.74544 174.517 10.8493C174.517 12.0113 173.863 12.665 172.425 12.665H170.9V9.03371H172.425Z" fill="#F17E00"/>
<path d="M159.933 5.57676H163.056V14.2046H164.799V5.57676H167.922V4.03711H159.933V5.57676Z" fill="#F17E00"/>
<path d="M155.141 14.3352C157.828 14.3352 159.643 12.5341 159.643 9.49838V8.74308C159.643 5.69283 157.857 3.90625 155.141 3.90625C152.454 3.90625 150.638 5.72188 150.638 8.74308V9.49838C150.638 12.5486 152.425 14.3352 155.141 14.3352ZM155.141 12.7084C153.572 12.7084 152.468 11.6045 152.468 9.49838V8.74308C152.468 6.6079 153.543 5.53305 155.141 5.53305C156.695 5.53305 157.813 6.65148 157.813 8.74308V9.49838C157.813 11.6336 156.724 12.7084 155.141 12.7084Z" fill="#F17E00"/>
<path d="M145.338 14.3352C147.691 14.3352 149.187 12.8391 149.477 10.7911H147.56C147.284 11.9386 146.514 12.7084 145.338 12.7084C143.827 12.7084 142.738 11.619 142.738 9.49838V8.74308C142.738 6.59338 143.798 5.53305 145.338 5.53305C146.543 5.53305 147.27 6.2593 147.56 7.15985H149.477C149.187 5.3878 147.705 3.90625 145.338 3.90625C142.694 3.90625 140.908 5.69283 140.908 8.74308V9.49838C140.908 12.5777 142.665 14.3352 145.338 14.3352Z" fill="#F17E00"/>
<path d="M138.542 14.2046H140.46L136.828 4.03711H134.795L131.164 14.2046H132.994L133.836 11.6337H137.685L138.542 14.2046ZM135.085 7.87171L135.768 5.78011L136.451 7.87171L137.177 10.094H134.345L135.085 7.87171Z" fill="#F17E00"/>
<path d="M124.121 14.2046H125.864V10.7477H127.607C130.207 10.7477 131.529 9.42589 131.529 7.39239C131.529 5.22816 130.338 4.03711 127.607 4.03711H124.121V14.2046ZM127.607 5.57676C129.045 5.57676 129.699 6.23039 129.699 7.39239C129.699 8.49629 128.987 9.20801 127.607 9.20801H125.864V5.57676H127.607Z" fill="#F17E00"/>
<path d="M120.711 14.2046H122.89L119.142 8.90299L122.599 4.03711H120.537L117.661 8.20579H116.644V4.03711H114.901V14.2046H116.644V9.74544H117.661L120.711 14.2046Z" fill="#F17E00"/>
<path d="M107.494 14.2046H109.237V4.03711H107.494V8.20579H102.701V4.03711H100.958V14.2046H102.701V9.74544H107.494V14.2046Z" fill="#F17E00"/>
<path d="M94.786 14.3352C97.4731 14.3352 99.2887 12.5341 99.2887 9.49838V8.74308C99.2887 5.69283 97.5021 3.90625 94.786 3.90625C92.0988 3.90625 90.2832 5.72188 90.2832 8.74308V9.49838C90.2832 12.5486 92.0698 14.3352 94.786 14.3352ZM94.786 12.7084C93.2173 12.7084 92.1134 11.6045 92.1134 9.49838V8.74308C92.1134 6.6079 93.1882 5.53305 94.786 5.53305C96.3401 5.53305 97.4586 6.65148 97.4586 8.74308V9.49838C97.4586 11.6336 96.3692 12.7084 94.786 12.7084Z" fill="#F17E00"/>
<path d="M79.9016 14.3353H80.1921C82.3273 14.3353 83.3876 13.275 83.3876 9.41136V5.57676H86.8736V14.2046H88.6166V4.03711H81.6446V9.41136C81.6446 12.113 81.0491 12.7085 80.1921 12.7085H79.9016V14.3353Z" fill="#F17E00"/>
<path d="M77.6189 14.2046H79.5362L75.905 4.03711H73.8715L70.2402 14.2046H72.0704L72.9128 11.6337H76.762L77.6189 14.2046ZM74.162 7.87171L74.8447 5.78011L75.5273 7.87171L76.2536 10.094H73.4212L74.162 7.87171Z" fill="#F17E00"/>
<path d="M65.5209 14.3352C67.874 14.3352 69.3701 12.8391 69.6606 10.7911H67.7433C67.4673 11.9386 66.6975 12.7084 65.5209 12.7084C64.0103 12.7084 62.921 11.619 62.921 9.49838V8.74308C62.921 6.59338 63.9813 5.53305 65.5209 5.53305C66.7265 5.53305 67.4528 6.2593 67.7433 7.15985H69.6606C69.3701 5.3878 67.8885 3.90625 65.5209 3.90625C62.8774 3.90625 61.0908 5.69283 61.0908 8.74308V9.49838C61.0908 12.5777 62.8483 14.3352 65.5209 14.3352Z" fill="#F17E00"/>
<path d="M178.027 26.1199C179.211 26.1199 179.781 25.5499 179.956 24.6905H179.149C178.974 25.1465 178.72 25.4008 178.027 25.4008C177.369 25.4008 176.904 24.9623 176.878 24.1116H180V23.6907C180 22.4015 179.193 21.5947 178.027 21.5947C176.869 21.5947 176.054 22.4103 176.054 23.6907V24.024C176.054 25.3219 176.852 26.1199 178.027 26.1199ZM178.027 22.3138C178.685 22.3138 179.088 22.6559 179.158 23.4276H176.887C176.966 22.6822 177.404 22.3138 178.027 22.3138Z" fill="#474766"/>
<path d="M174.211 26.0499H175V21.665H173.983L172.501 24.2083L172.019 25.1116V21.665H171.229V26.0499H172.247L173.729 23.5067L174.211 22.6034V26.0499Z" fill="#474766"/>
<path d="M169.124 26.0499H169.913V21.665H169.124V23.4541H166.932V21.665H166.142V26.0499H166.932V24.1732H169.124V26.0499Z" fill="#474766"/>
<path d="M163.116 26.1199C164.3 26.1199 164.87 25.5499 165.046 24.6905H164.239C164.063 25.1465 163.809 25.4008 163.116 25.4008C162.459 25.4008 161.994 24.9623 161.967 24.1116H165.089V23.6907C165.089 22.4015 164.283 21.5947 163.116 21.5947C161.959 21.5947 161.143 22.4103 161.143 23.6907V24.024C161.143 25.3219 161.941 26.1199 163.116 26.1199ZM163.116 22.3138C163.774 22.3138 164.177 22.6559 164.248 23.4276H161.976C162.055 22.6822 162.494 22.3138 163.116 22.3138Z" fill="#474766"/>
<path d="M156.101 26.1201H156.233C157.145 26.1201 157.724 25.55 157.724 23.8224V22.3842H159.302V26.0499H160.092V21.665H156.934V23.8224C156.934 25.0414 156.61 25.3659 156.233 25.3659H156.101V26.1201Z" fill="#474766"/>
<path d="M152.071 26.0499H153.913C155.097 26.0499 155.579 25.5676 155.579 24.7783C155.579 24.3486 155.351 23.9715 154.86 23.7698C155.228 23.5593 155.404 23.2436 155.404 22.884C155.404 22.1474 154.921 21.665 153.738 21.665H152.071V26.0499ZM153.913 24.1557C154.544 24.1557 154.755 24.3661 154.755 24.7345C154.755 25.1203 154.544 25.3308 153.913 25.3308H152.861V24.1557H153.913ZM153.738 22.3842C154.378 22.3842 154.579 22.5859 154.579 22.9279C154.579 23.2699 154.378 23.4716 153.738 23.4716H152.861V22.3842H153.738Z" fill="#474766"/>
<path d="M148.611 26.1199C149.251 26.1199 149.777 25.8305 150.093 25.3306L150.189 26.0498H150.803V23.068C150.803 22.1648 150.233 21.5947 149.137 21.5947C147.98 21.5947 147.427 22.1472 147.383 22.8927H148.26C148.304 22.5419 148.55 22.2963 149.137 22.2963C149.733 22.2963 150.014 22.5769 150.014 23.068V23.3925H149.137C147.743 23.3925 147.208 23.9275 147.208 24.822C147.208 25.6288 147.699 26.1199 148.611 26.1199ZM148.699 25.4183C148.278 25.4183 148.032 25.1728 148.032 24.8045C148.032 24.3572 148.33 24.059 149.137 24.059H150.014V24.2169C150.014 24.8658 149.462 25.4183 148.699 25.4183Z" fill="#474766"/>
<path d="M144.73 26.1199C145.721 26.1199 146.466 25.3745 146.466 24.024V23.6907C146.466 22.3314 145.729 21.5947 144.738 21.5947C144.107 21.5947 143.607 21.8315 143.3 22.2963L143.221 21.6649H142.607V27.8037H143.397V25.5499C143.704 25.927 144.16 26.1199 144.73 26.1199ZM144.519 25.3657C143.87 25.3657 143.397 24.8834 143.397 24.024V23.6293C143.414 22.7962 143.888 22.3489 144.519 22.3489C145.212 22.3489 145.642 22.7874 145.642 23.6907V24.024C145.642 24.9448 145.221 25.3657 144.519 25.3657Z" fill="#474766"/>
<path d="M140.507 26.0499H141.296V21.665H137.7V26.0499H138.49V22.3842H140.507V26.0499Z" fill="#474766"/>
<path d="M133.714 27.8039H134.556L136.915 21.665H136.073L134.81 25.0589L133.477 21.665H132.618L134.389 26.0499L133.714 27.8039Z" fill="#474766"/>
<path d="M128.846 26.0499H129.635V21.665H128.618L127.136 24.2083L126.654 25.1116V21.665H125.864V26.0499H126.882L128.364 23.5067L128.846 22.6034V26.0499Z" fill="#474766"/>
<path d="M118.939 23.1033C118.939 23.6996 119.158 24.1293 119.711 24.3574L118.763 26.0499H119.64L120.456 24.5152C120.57 24.524 120.693 24.524 120.824 24.524H121.57V26.0499H122.359V21.665H120.824C119.456 21.665 118.939 22.1825 118.939 23.1033ZM119.763 23.1033C119.763 22.6297 120.009 22.3842 120.824 22.3842H121.57V23.8049H120.824C120.009 23.8049 119.763 23.5593 119.763 23.1033Z" fill="#474766"/>
<path d="M117.096 26.0499H117.885V21.665H116.868L115.386 24.2083L114.904 25.1116V21.665H114.114V26.0499H115.132L116.614 23.5067L117.096 22.6034V26.0499Z" fill="#474766"/>
<path d="M109.156 26.0499H112.532V27.19H113.322V25.3308H112.708V21.665H111.918V25.3308H109.945V21.665H109.156V26.0499Z" fill="#474766"/>
<path d="M105.696 26.1199C106.336 26.1199 106.862 25.8305 107.178 25.3306L107.274 26.0498H107.888V23.068C107.888 22.1648 107.318 21.5947 106.222 21.5947C105.064 21.5947 104.512 22.1472 104.468 22.8927H105.345C105.389 22.5419 105.634 22.2963 106.222 22.2963C106.818 22.2963 107.099 22.5769 107.099 23.068V23.3925H106.222C104.828 23.3925 104.293 23.9275 104.293 24.822C104.293 25.6288 104.784 26.1199 105.696 26.1199ZM105.784 25.4183C105.363 25.4183 105.117 25.1728 105.117 24.8045C105.117 24.3572 105.415 24.059 106.222 24.059H107.099V24.2169C107.099 24.8658 106.547 25.4183 105.784 25.4183Z" fill="#474766"/>
<path d="M101.79 21.5947C100.694 21.5947 100.167 22.1209 100.08 22.9365H100.887C100.974 22.5594 101.202 22.3314 101.79 22.3314C102.377 22.3314 102.605 22.5594 102.605 22.8927C102.605 23.2434 102.377 23.4539 101.79 23.4539H101.308V24.173H101.79C102.483 24.173 102.737 24.4098 102.737 24.7781C102.737 25.1289 102.483 25.3833 101.79 25.3833C101.097 25.3833 100.843 25.1289 100.755 24.6905H99.9482C100.036 25.5762 100.58 26.1199 101.79 26.1199C103 26.1199 103.544 25.5762 103.544 24.822C103.544 24.3835 103.325 24.024 102.851 23.8135C103.228 23.6118 103.412 23.2698 103.412 22.8488C103.412 22.1209 102.886 21.5947 101.79 21.5947Z" fill="#474766"/>
<path d="M98.2381 26.0499H99.0273V21.665H98.0101L96.528 24.2083L96.0456 25.1116V21.665H95.2563V26.0499H96.2736L97.7557 23.5067L98.2381 22.6034V26.0499Z" fill="#474766"/>
<path d="M90.8257 22.3842H92.2288V26.0499H93.0181V22.3842H94.4213V21.665H90.8257V22.3842Z" fill="#474766"/>
<path d="M87.9339 26.1199C88.5741 26.1199 89.1003 25.8305 89.416 25.3306L89.5125 26.0498H90.1264V23.068C90.1264 22.1648 89.5563 21.5947 88.4601 21.5947C87.3025 21.5947 86.75 22.1472 86.7062 22.8927H87.5831C87.627 22.5419 87.8725 22.2963 88.4601 22.2963C89.0565 22.2963 89.3371 22.5769 89.3371 23.068V23.3925H88.4601C87.0657 23.3925 86.5308 23.9275 86.5308 24.822C86.5308 25.6288 87.0219 26.1199 87.9339 26.1199ZM88.0216 25.4183C87.6007 25.4183 87.3551 25.1728 87.3551 24.8045C87.3551 24.3572 87.6533 24.059 88.4601 24.059H89.3371V24.2169C89.3371 24.8658 88.7846 25.4183 88.0216 25.4183Z" fill="#474766"/>
<path d="M82.8063 24.9975H83.5956L84.2972 23.5067L84.7356 22.5508V26.0499H85.5249V21.665H84.4024L83.2185 24.1557L82.0346 21.665H80.877V26.0499H81.6662V22.5596L82.0959 23.5067L82.8063 24.9975Z" fill="#474766"/>
<path d="M77.8085 26.1199C79.0275 26.1199 79.8256 25.3219 79.8256 24.024V23.6907C79.8256 22.384 79.0363 21.5947 77.8085 21.5947C76.5896 21.5947 75.7915 22.3928 75.7915 23.6907V24.024C75.7915 25.3306 76.5808 26.1199 77.8085 26.1199ZM77.8085 25.3657C77.0807 25.3657 76.6159 24.9009 76.6159 24.024V23.6907C76.6159 22.805 77.0719 22.3489 77.8085 22.3489C78.5364 22.3489 79.0012 22.8137 79.0012 23.6907V24.024C79.0012 24.9097 78.5452 25.3657 77.8085 25.3657Z" fill="#474766"/>
<path d="M71.7964 22.3842H73.1995V26.0499H73.9888V22.3842H75.392V21.665H71.7964V22.3842Z" fill="#474766"/>
<path d="M67.8079 26.0499H69.6495C70.8334 26.0499 71.3158 25.5676 71.3158 24.7783C71.3158 24.3486 71.0878 23.9715 70.5966 23.7698C70.965 23.5593 71.1404 23.2436 71.1404 22.884C71.1404 22.1474 70.658 21.665 69.4741 21.665H67.8079V26.0499ZM69.6495 24.1557C70.2809 24.1557 70.4914 24.3661 70.4914 24.7345C70.4914 25.1203 70.2809 25.3308 69.6495 25.3308H68.5971V24.1557H69.6495ZM69.4741 22.3842C70.1143 22.3842 70.316 22.5859 70.316 22.9279C70.316 23.2699 70.1143 23.4716 69.4741 23.4716H68.5971V22.3842H69.4741Z" fill="#474766"/>
<path d="M64.3477 26.1199C64.9879 26.1199 65.5141 25.8305 65.8298 25.3306L65.9263 26.0498H66.5402V23.068C66.5402 22.1648 65.9701 21.5947 64.8739 21.5947C63.7163 21.5947 63.1638 22.1472 63.12 22.8927H63.997C64.0408 22.5419 64.2864 22.2963 64.8739 22.2963C65.4703 22.2963 65.7509 22.5769 65.7509 23.068V23.3925H64.8739C63.4795 23.3925 62.9446 23.9275 62.9446 24.822C62.9446 25.6288 63.4357 26.1199 64.3477 26.1199ZM64.4354 25.4183C64.0145 25.4183 63.7689 25.1728 63.7689 24.8045C63.7689 24.3572 64.0671 24.059 64.8739 24.059H65.7509V24.2169C65.7509 24.8658 65.1984 25.4183 64.4354 25.4183Z" fill="#474766"/>
<path fill-rule="evenodd" clip-rule="evenodd" d="M9.99332 29.1176V0.870117H8.75191L0 3.27172L1.39658 8.30365L6.70359 7.10285V29.1176H9.99332Z" fill="#F17E00"/>
<path d="M13.3139 0.870117H9.99316V29.1176H13.3139V0.870117Z" fill="#FFAA2B"/>
<path fill-rule="evenodd" clip-rule="evenodd" d="M35.1965 3.21493C39.0138 3.21493 42.6449 4.78741 45.0656 7.50351L47.0519 5.38781C41.2793 -0.644793 31.3171 -1.2166 24.7686 4.07264C18.2202 9.36189 17.5685 18.568 23.341 24.6006C29.1136 30.6332 39.0758 31.2336 45.6243 25.9158C46.0588 25.5727 46.4622 25.201 46.8346 24.8294L44.8484 22.7423C40.1931 27.6598 32.124 28.1745 26.7859 23.8859C21.4479 19.5973 20.8892 12.1638 25.5445 7.24619C27.9963 4.70164 31.5033 3.21493 35.1965 3.21493Z" fill="#F17E00"/>
<path fill-rule="evenodd" clip-rule="evenodd" d="M45.0637 7.50282C40.5636 2.47089 32.5255 1.75613 27.0633 5.90175C21.6011 10.0474 20.8253 17.4523 25.3254 22.4843C29.8255 27.5162 37.8636 28.231 43.3258 24.0853C43.8844 23.6565 44.3809 23.199 44.8465 22.713L42.7361 20.4543C39.4774 24.2855 33.4255 24.9716 29.2668 21.941C25.1081 18.9104 24.3633 13.3639 27.653 9.53275C30.9427 5.70162 36.9635 5.01545 41.1223 8.04604C41.805 8.53208 42.4257 9.10389 42.9223 9.76148L45.0637 7.50282Z" fill="#FFAA2B"/>
<path d="M51.5171 13.3639C52.3741 13.3639 53.0689 12.7239 53.0689 11.9344C53.0689 11.1449 52.3741 10.5049 51.5171 10.5049C50.6601 10.5049 49.9653 11.1449 49.9653 11.9344C49.9653 12.7239 50.6601 13.3639 51.5171 13.3639Z" fill="#F17E00"/>
<path d="M51.5186 23.3708C52.3756 23.3708 53.0703 22.7308 53.0703 21.9412C53.0703 21.1517 52.3756 20.5117 51.5186 20.5117C50.6615 20.5117 49.9668 21.1517 49.9668 21.9412C49.9668 22.7308 50.6615 23.3708 51.5186 23.3708Z" fill="#F17E00"/>
</svg>
