<svg viewBox="-10 -10 232 58" fill="none" xmlns="http://www.w3.org/2000/svg">
<path d="M77.387 24.2301C76.2458 24.2301 75.2935 23.8447 74.5303 23.074C73.7744 22.2959 73.3965 21.34 73.3965 20.2062C73.3965 19.0798 73.7781 18.1276 74.5414 17.3495C75.3047 16.5714 76.2754 16.1824 77.4537 16.1824C78.128 16.1824 78.6949 16.2935 79.1544 16.5158C79.6138 16.7307 80.051 17.042 80.466 17.4495L79.4434 18.6278C79.1099 18.324 78.7949 18.1054 78.4985 17.972C78.2095 17.8312 77.8575 17.7608 77.4426 17.7608C76.7904 17.7608 76.2495 17.9979 75.8197 18.4722C75.3973 18.939 75.1861 19.517 75.1861 20.2062C75.1861 20.888 75.3973 21.466 75.8197 21.9402C76.2495 22.4145 76.7904 22.6516 77.4426 22.6516C77.8575 22.6516 78.2169 22.5775 78.5208 22.4293C78.8246 22.2811 79.1469 22.0514 79.4878 21.7402L80.5771 22.9073C80.1548 23.3593 79.6953 23.6928 79.1988 23.9077C78.7097 24.1226 78.1058 24.2301 77.387 24.2301Z" fill="#003459"/>
<path d="M83.7593 24.0967V17.8942H81.3917V16.3158H87.8387V17.8942H85.4711V24.0967H83.7593Z" fill="#003459"/>
<path d="M95.5548 23.0629C94.7693 23.841 93.7837 24.2301 92.598 24.2301C91.4124 24.2301 90.4268 23.841 89.6413 23.0629C88.8632 22.2848 88.4742 21.3326 88.4742 20.2062C88.4742 19.0872 88.8669 18.1387 89.6524 17.3606C90.4453 16.5751 91.4346 16.1824 92.6203 16.1824C93.8059 16.1824 94.7878 16.5714 95.5659 17.3495C96.3514 18.1276 96.7441 19.0798 96.7441 20.2062C96.7441 21.3252 96.3477 22.2774 95.5548 23.0629ZM90.9307 21.9402C91.3753 22.4145 91.9385 22.6516 92.6203 22.6516C93.302 22.6516 93.8615 22.4182 94.2987 21.9514C94.7359 21.4771 94.9545 20.8954 94.9545 20.2062C94.9545 19.5245 94.7322 18.9464 94.2876 18.4722C93.843 17.9979 93.2798 17.7608 92.598 17.7608C91.9163 17.7608 91.3568 17.9979 90.9196 18.4722C90.4824 18.939 90.2638 19.517 90.2638 20.2062C90.2638 20.888 90.4861 21.466 90.9307 21.9402Z" fill="#003459"/>
<path d="M98.2626 24.0967V16.3158H100.108L102.153 19.606L104.198 16.3158H106.044V24.0967H104.343V19.0168L102.153 22.3404H102.109L99.9411 19.0502V24.0967H98.2626Z" fill="#003459"/>
<path d="M107.246 24.0967L110.581 16.2602H112.159L115.494 24.0967H113.704L112.993 22.3515H109.702L108.991 24.0967H107.246ZM110.314 20.8398H112.381L111.347 18.3166L110.314 20.8398Z" fill="#003459"/>
<path d="M117.508 24.0967V17.8942H115.14V16.3158H121.587V17.8942H119.219V24.0967H117.508Z" fill="#003459"/>
<path d="M129.303 23.0629C128.518 23.841 127.532 24.2301 126.346 24.2301C125.161 24.2301 124.175 23.841 123.39 23.0629C122.612 22.2848 122.223 21.3326 122.223 20.2062C122.223 19.0872 122.615 18.1387 123.401 17.3606C124.194 16.5751 125.183 16.1824 126.369 16.1824C127.554 16.1824 128.536 16.5714 129.314 17.3495C130.1 18.1276 130.493 19.0798 130.493 20.2062C130.493 21.3252 130.096 22.2774 129.303 23.0629ZM124.679 21.9402C125.124 22.4145 125.687 22.6516 126.369 22.6516C127.05 22.6516 127.61 22.4182 128.047 21.9514C128.484 21.4771 128.703 20.8954 128.703 20.2062C128.703 19.5245 128.481 18.9464 128.036 18.4722C127.591 17.9979 127.028 17.7608 126.346 17.7608C125.665 17.7608 125.105 17.9979 124.668 18.4722C124.231 18.939 124.012 19.517 124.012 20.2062C124.012 20.888 124.234 21.466 124.679 21.9402Z" fill="#003459"/>
<path d="M132.708 16.3158H138.266V24.0967H136.554V17.8608H134.309V18.45C134.309 19.9691 134.216 21.1473 134.031 21.9847C133.853 22.8221 133.59 23.4001 133.242 23.7187C132.893 24.0374 132.408 24.1967 131.786 24.1967C131.437 24.1967 131.137 24.1634 130.885 24.0967L130.996 22.685C131.1 22.6998 131.189 22.7072 131.263 22.7072C131.515 22.7072 131.719 22.6553 131.875 22.5516C132.038 22.4404 132.186 22.2218 132.319 21.8958C132.46 21.5697 132.56 21.0843 132.619 20.4396C132.679 19.7875 132.708 18.9502 132.708 17.9275V16.3158Z" fill="#003459"/>
<path d="M146.867 23.0629C146.081 23.841 145.096 24.2301 143.91 24.2301C142.724 24.2301 141.739 23.841 140.953 23.0629C140.175 22.2848 139.786 21.3326 139.786 20.2062C139.786 19.0872 140.179 18.1387 140.964 17.3606C141.757 16.5751 142.746 16.1824 143.932 16.1824C145.118 16.1824 146.1 16.5714 146.878 17.3495C147.663 18.1276 148.056 19.0798 148.056 20.2062C148.056 21.3252 147.66 22.2774 146.867 23.0629ZM142.243 21.9402C142.687 22.4145 143.25 22.6516 143.932 22.6516C144.614 22.6516 145.173 22.4182 145.611 21.9514C146.048 21.4771 146.266 20.8954 146.266 20.2062C146.266 19.5245 146.044 18.9464 145.599 18.4722C145.155 17.9979 144.592 17.7608 143.91 17.7608C143.228 17.7608 142.669 17.9979 142.231 18.4722C141.794 18.939 141.576 19.517 141.576 20.2062C141.576 20.888 141.798 21.466 142.243 21.9402Z" fill="#003459"/>
<path d="M151.286 17.8608V24.0967H149.574V16.3158H155.01V17.8608H151.286Z" fill="#003459"/>
<path d="M162.92 16.3158V24.0967H161.231V18.9946L157.83 24.0967H156.218V16.3158H157.907V21.4178L161.331 16.3158H162.92Z" fill="#003459"/>
<path d="M169.306 24.0967V21.1955C168.521 21.5808 167.835 21.7735 167.25 21.7735C166.442 21.7735 165.805 21.5549 165.338 21.1177C164.871 20.6805 164.638 20.0284 164.638 19.1613V16.3158H166.349V18.6611C166.349 19.669 166.768 20.1729 167.605 20.1729C168.309 20.1729 168.876 20.0061 169.306 19.6727V16.3158H171.018V24.0967H169.306Z" fill="#003459"/>
<path d="M172.88 24.0967V16.3158H178.749V17.8386H174.581V19.417H178.249V20.9398H174.581V22.5738H178.805V24.0967H172.88Z" fill="#003459"/>
<path d="M183.756 24.2301C182.614 24.2301 181.662 23.8447 180.899 23.074C180.143 22.2959 179.765 21.34 179.765 20.2062C179.765 19.0798 180.147 18.1276 180.91 17.3495C181.673 16.5714 182.644 16.1824 183.822 16.1824C184.497 16.1824 185.064 16.2935 185.523 16.5158C185.982 16.7307 186.42 17.042 186.835 17.4495L185.812 18.6278C185.479 18.324 185.164 18.1054 184.867 17.972C184.578 17.8312 184.226 17.7608 183.811 17.7608C183.159 17.7608 182.618 17.9979 182.188 18.4722C181.766 18.939 181.555 19.517 181.555 20.2062C181.555 20.888 181.766 21.466 182.188 21.9402C182.618 22.4145 183.159 22.6516 183.811 22.6516C184.226 22.6516 184.586 22.5775 184.889 22.4293C185.193 22.2811 185.516 22.0514 185.856 21.7402L186.946 22.9073C186.523 23.3593 186.064 23.6928 185.567 23.9077C185.078 24.1226 184.474 24.2301 183.756 24.2301Z" fill="#003459"/>
<path d="M188.316 24.0967V16.3158H190.028V19.7171L193.185 16.3158H195.252L192.084 19.6171L195.397 24.0967H193.34L190.928 20.7842L190.028 21.7179V24.0967H188.316Z" fill="#003459"/>
<path d="M195.769 24.0967L199.103 16.2602H200.682L204.017 24.0967H202.227L201.516 22.3515H198.225L197.514 24.0967H195.769ZM198.837 20.8398H200.904L199.87 18.3166L198.837 20.8398Z" fill="#003459"/>
<path d="M211.376 16.3158V24.0967H209.664V21.6068H208.319L206.651 24.0967H204.651L206.551 21.3178C205.44 20.9028 204.884 20.0914 204.884 18.8835C204.884 18.0831 205.143 17.457 205.662 17.0049C206.188 16.5455 206.907 16.3158 207.819 16.3158H211.376ZM207.93 20.0951H209.664V17.8608H207.963C207.541 17.8608 207.211 17.9572 206.974 18.1498C206.737 18.3425 206.618 18.6241 206.618 18.9946C206.618 19.3281 206.733 19.5949 206.963 19.7949C207.2 19.995 207.522 20.0951 207.93 20.0951Z" fill="#003459"/>
<path d="M73.7411 37.3561V29.5752H75.4529V32.9766L78.6097 29.5752H80.6772L77.5092 32.8765L80.8217 37.3561H78.7653L76.3532 34.0437L75.4529 34.9774V37.3561H73.7411Z" fill="#003459"/>
<path d="M82.8944 29.5752H88.4522V37.3561H86.7404V31.1203H84.495V31.7094C84.495 33.2285 84.4024 34.4068 84.2171 35.2441C84.0393 36.0815 83.7762 36.6595 83.4279 36.9782C83.0797 37.2968 82.5943 37.4561 81.9718 37.4561C81.6235 37.4561 81.3234 37.4228 81.0714 37.3561L81.1826 35.9444C81.2863 35.9592 81.3753 35.9666 81.4494 35.9666C81.7013 35.9666 81.9051 35.9148 82.0607 35.811C82.2238 35.6999 82.372 35.4813 82.5054 35.1552C82.6461 34.8292 82.7462 34.3438 82.8055 33.6991C82.8648 33.047 82.8944 32.2096 82.8944 31.187V29.5752Z" fill="#003459"/>
<path d="M97.0194 29.5752V37.3561H95.3299V32.254L91.9285 37.3561H90.3167V29.5752H92.0063V34.6772L95.4299 29.5752H97.0194Z" fill="#003459"/>
<path d="M98.8922 37.3561V29.5752H100.604V32.6542H103.761V29.5752H105.473V37.3561H103.761V34.2326H100.604V37.3561H98.8922Z" fill="#003459"/>
<path d="M114.04 29.5752V37.3561H112.351V32.254L108.949 37.3561H107.337V29.5752H109.027V34.6772L112.451 29.5752H114.04Z" fill="#003459"/>
<path d="M115.913 37.3561V29.5752H117.625V32.9766L120.782 29.5752H122.849L119.681 32.8765L122.994 37.3561H120.937L118.525 34.0437L117.625 34.9774V37.3561H115.913Z" fill="#003459"/>
<path d="M123.366 37.3561L126.7 29.5196H128.279L131.613 37.3561H129.824L129.112 35.6109H125.822L125.111 37.3561H123.366ZM126.433 34.0992H128.501L127.467 31.576L126.433 34.0992Z" fill="#003459"/>
<path d="M73.7412 9.59918V1.81827H75.5864L77.6317 5.10848L79.6769 1.81827H81.5221V9.59918H79.8214V4.51936L77.6317 7.84292H77.5872L75.4197 4.5527V9.59918H73.7412Z" fill="#41B4B4"/>
<path d="M83.3914 9.59918V1.81827H89.2604V3.34111H85.092V4.91952H88.7602V6.44235H85.092V8.07634H89.316V9.59918H83.3914Z" fill="#41B4B4"/>
<path d="M90.0154 11.2221V8.05411H90.749C91.0528 7.35012 91.2714 6.60538 91.4048 5.81988C91.5382 5.03438 91.6049 4.00434 91.6049 2.72975V1.81827H97.2627V8.05411H98.1964L97.9741 11.2221H96.5402V9.59918H91.6716L91.5604 11.2221H90.0154ZM95.5509 3.36334H93.25V4.15254C93.25 5.6198 93.0166 6.92032 92.5497 8.05411H95.5509V3.36334Z" fill="#41B4B4"/>
<path d="M106.094 1.81827V9.59918H104.405V4.49713L101.003 9.59918H99.3917V1.81827H101.081V6.92032L104.505 1.81827H106.094Z" fill="#41B4B4"/>
<path d="M113.736 11.2221V9.59918H107.967V1.81827H109.679V8.05411H112.747V1.81827H114.459V8.05411H115.381L115.159 11.2221H113.736Z" fill="#41B4B4"/>
<path d="M123.289 1.81827V9.59918H121.599V4.49713L118.198 9.59918H116.586V1.81827H118.276V6.92032L121.699 1.81827H123.289Z" fill="#41B4B4"/>
<path d="M125.162 9.59918V1.81827H126.873V4.89729H130.03V1.81827H131.742V9.59918H130.03V6.4757H126.873V9.59918H125.162Z" fill="#41B4B4"/>
<path d="M132.94 9.59918L136.275 1.7627H137.853L141.188 9.59918H139.398L138.687 7.85403H135.396L134.685 9.59918H132.94ZM136.008 6.34231H138.075L137.042 3.81908L136.008 6.34231Z" fill="#41B4B4"/>
<path fill-rule="evenodd" clip-rule="evenodd" d="M12.3637 36.0541V0.65332H10.8744L0.375 3.66311L2.05043 9.96932L8.41708 8.46443V36.0541H12.3637Z" fill="#5FCDCD"/>
<path d="M16.3471 0.65332H12.3633V36.0541H16.3471V0.65332Z" fill="#41B4B4"/>
<path fill-rule="evenodd" clip-rule="evenodd" d="M42.597 3.59157C47.1765 3.59157 51.5326 5.56226 54.4367 8.96618L56.8196 6.31471C49.8944 -1.24559 37.943 -1.9622 30.0871 4.66649C22.2312 11.2952 21.4493 22.8327 28.3744 30.393C35.2995 37.9533 47.251 38.7057 55.1069 32.0412C55.6281 31.6112 56.1122 31.1454 56.5589 30.6796L54.1761 28.064C48.5913 34.2269 38.911 34.8718 32.5072 29.4972C26.1033 24.1226 25.4331 14.8066 31.0179 8.64371C33.9592 5.45477 38.1664 3.59157 42.597 3.59157Z" fill="#5FCDCD"/>
<path fill-rule="evenodd" clip-rule="evenodd" d="M54.436 8.96618C49.0374 2.65996 39.3943 1.76419 32.8415 6.95966C26.2887 12.1551 25.3579 21.4353 30.7566 27.7415C36.1552 34.0477 45.7982 34.9435 52.351 29.748C53.0212 29.2106 53.6169 28.6373 54.1754 28.0282L51.6436 25.1975C47.7343 29.9988 40.4741 30.8588 35.485 27.0607C30.4959 23.2627 29.6024 16.3115 33.5489 11.5102C37.4955 6.70884 44.7185 5.8489 49.7076 9.64696C50.5267 10.2561 51.2713 10.9727 51.867 11.7968L54.436 8.96618Z" fill="#41B4B4"/>
<path d="M62.18 16.3116C63.2081 16.3116 64.0416 15.5095 64.0416 14.5201C64.0416 13.5306 63.2081 12.7285 62.18 12.7285C61.1518 12.7285 60.3184 13.5306 60.3184 14.5201C60.3184 15.5095 61.1518 16.3116 62.18 16.3116Z" fill="#5FCDCD"/>
<path d="M62.18 28.8516C63.2081 28.8516 64.0416 28.0495 64.0416 27.0601C64.0416 26.0707 63.2081 25.2686 62.18 25.2686C61.1518 25.2686 60.3184 26.0707 60.3184 27.0601C60.3184 28.0495 61.1518 28.8516 62.18 28.8516Z" fill="#5FCDCD"/>
</svg>
